<svg xmlns="http://www.w3.org/2000/svg" version="1.1" xlink="http://www.w3.org/1999/xlink" xmlns:svgjs="http://svgjs.com/svgjs" width="100%" height="100%" viewBox="1.004000186920166 1.0119999647140503 97.98800659179688 97.98400115966797"><g fill="url(#SvgjsLinearGradient1000)"><path d="M12.293 19.242h57.176c3.106 0 5.93 1.27 7.973 3.316a11.26 11.26 0 0 1 3.316 7.973v57.176c0 3.106-1.27 5.93-3.316 7.973a11.26 11.26 0 0 1-7.973 3.316H12.293c-3.106 0-5.93-1.27-7.973-3.316a11.26 11.26 0 0 1-3.316-7.973V30.531c0-3.105 1.27-5.93 3.316-7.973a11.26 11.26 0 0 1 7.973-3.316zm11.98-9.344a2.293 2.293 0 0 1-2.96 1.313A2.293 2.293 0 0 1 20 8.25 11.345 11.345 0 0 1 24.156 3a11.226 11.226 0 0 1 6.37-1.988h57.177c3.105 0 5.93 1.269 7.973 3.316a11.26 11.26 0 0 1 3.316 7.973v57.176a11.22 11.22 0 0 1-1.988 6.37 11.413 11.413 0 0 1-5.25 4.157 2.29 2.29 0 1 1-1.649-4.273 6.777 6.777 0 0 0 3.133-2.489 6.656 6.656 0 0 0 1.164-3.77V12.298c0-1.84-.754-3.512-1.969-4.727a6.678 6.678 0 0 0-4.726-1.969H30.53a6.656 6.656 0 0 0-3.77 1.164 6.78 6.78 0 0 0-2.484 3.137zM23.269 63.54a2.29 2.29 0 1 1 2.977-3.48l6.71 5.738a5.78 5.78 0 0 0 2.04 1.156c.73.227 1.515.305 2.347.223.829-.086 1.582-.309 2.25-.676a5.876 5.876 0 0 0 1.778-1.539l13.832-17.629a2.294 2.294 0 0 1 3.606 2.836L44.975 67.797a10.279 10.279 0 0 1-3.176 2.723c-1.207.66-2.543 1.066-4.003 1.21s-2.852.012-4.157-.398a10.374 10.374 0 0 1-3.652-2.05l-6.71-5.739zm46.2-39.699H12.291c-1.84 0-3.512.754-4.727 1.969s-1.968 2.89-1.968 4.727v57.176c0 1.84.754 3.511 1.968 4.726s2.891 1.969 4.727 1.969h57.176c1.84 0 3.512-.754 4.727-1.969a6.678 6.678 0 0 0 1.969-4.726V30.536c0-1.84-.754-3.512-1.97-4.727a6.678 6.678 0 0 0-4.726-1.969z"></path></g><defs><linearGradient gradientUnits="userSpaceOnUse" id="SvgjsLinearGradient1000" x1="1.0050015449524208" y1="98.99700248241423" x2="98.9910054206848" y2="1.0109986066818235"><stop stop-color="#51b3f0" offset="0.05"></stop><stop stop-color="#0f74b2" offset="0.95"></stop></linearGradient></defs></svg>